<mxfile host="app.diagrams.net" modified="2024-03-31T16:31:56.893Z" agent="Mozilla/5.0 (Windows NT 10.0; Win64; x64) AppleWebKit/537.36 (KHTML, like Gecko) Chrome/123.0.0.0 Safari/537.36" version="24.0.4" etag="C8ucxDrcuTY1uXuPNPO2" type="github">
  <diagram name="Page-1" id="czsJvqmXH2lK5UwWJ_g2">
    <mxGraphModel>
      <root>
        <mxCell id="0" />
        <mxCell id="1" parent="0" />
      </root>
    </mxGraphModel>
  </diagram>
</mxfile>
